P1
7 10

1110111
1110111
1110111
1110111
1110111
0000000
1110111
1110111
1110111
1110111
